<?xml version="1.0" standalone="no"?><!DOCTYPE svg PUBLIC "-//W3C//DTD SVG 1.1//EN" "http://www.w3.org/Graphics/SVG/1.1/DTD/svg11.dtd"><svg t="1621340353277" class="icon" viewBox="0 0 1024 1024" version="1.1" xmlns="http://www.w3.org/2000/svg" p-id="3301" xmlns:xlink="http://www.w3.org/1999/xlink" width="200" height="200"><defs><style type="text/css"></style></defs><path d="M878.2 522.9c-7.5-90.9-49-175.6-116.8-238.5-45.4-42.1-99.8-71.6-158.2-86.6-4.1-16.1-12.4-30.9-24.6-43-17.6-17.6-41-27.4-65.7-27.4-24.7 0-48.1 9.7-65.7 27.4-12.1 12.1-20.5 26.9-24.6 43-58.4 15-112.7 44.5-158.2 86.6-67.8 62.8-109.3 147.5-116.8 238.5-0.9 11.4 2.9 22.8 10.7 31.1 7.6 8.2 18.3 13 29.5 13h297v224.3c0 0.9 0 1.7 0.1 2.5 0 33.7 13.2 65.5 37.3 89.5 24 24 55.8 37.3 89.5 37.3s65.5-13.2 89.5-37.3 37.3-55.8 37.3-89.5c0-15.5-12.6-28.1-28.1-28.1s-28.1 12.6-28.1 28.1c0 38.9-31.6 70.5-70.5 70.5s-70.5-31.6-70.5-70.5c0-0.9 0-1.7-0.1-2.5V567h296.9c11.2 0 21.9-4.7 29.5-13 7.7-8.4 11.6-19.7 10.6-31.1z" fill="#1296db" p-id="3302"></path></svg>