<?xml version="1.0" standalone="no"?><!DOCTYPE svg PUBLIC "-//W3C//DTD SVG 1.1//EN" "http://www.w3.org/Graphics/SVG/1.1/DTD/svg11.dtd"><svg t="1621342779177" class="icon" viewBox="0 0 1024 1024" version="1.1" xmlns="http://www.w3.org/2000/svg" p-id="2754" xmlns:xlink="http://www.w3.org/1999/xlink" width="200" height="200"><defs><style type="text/css"></style></defs><path d="M512 958.2c-253.8 0-382.5-59.7-382.5-177.4 0-84.1 132.6-139.1 264.8-157.7v-17.5c-79.4-58-118-159.3-118-308.7 0-144.7 86.6-231.2 231.8-231.2h7.8c145.2 0 231.9 86.4 231.9 231.2 0 56.2 0 222.9-117.1 308.9l-0.4 17.3c132 18.7 264.2 73.7 264.2 157.7 0 117.8-128.7 177.4-382.5 177.4z m-4-836.7c-79.9 0-175.2 29.8-175.2 172.1 0 136.8 34.4 225 105.1 269.7 8.9 5.7 14.4 15.8 14.4 26.8v62.5c0.3 15.7-11.3 29.1-26.8 31.1-145.2 15.2-241.4 71-241.4 101.2 0 97.2 178.3 117.6 327.9 117.6 149.6 0 327.9-20.4 327.9-117.6 0-30.2-96.3-86.1-241.4-101.2-15.8-2.1-27.4-15.9-26.8-31.8l1.3-62.5c0.1-10.5 5.5-20.3 14.3-26.1 70.9-44.8 103.9-130.4 103.9-269.7 0-142.3-95.3-172.1-175.2-172.1h-8z m487.9 581.7c-14.8-0.4-26.4-12.7-26-27.5 0-21-74.3-72.1-160.3-81.7-13.6-1.8-23.7-13.6-23.3-27.3v-57.2c0-9.4 4.6-18.1 12.1-23.1 67.3-45.3 74.6-145.9 74.6-187 0-94.9-60.8-114.9-111.8-114.9-14.8-0.4-26.4-12.6-26.1-27.4-0.4-14.8 11.2-27.1 26-27.5h0.1c101 0 163.8 65 163.8 169.8 0 47.9-8.7 162.1-86.7 224.6v19c83.3 16 183.7 68.7 183.7 132.8 0.4 14.8-11.3 27.1-26.1 27.4z m-967.8 0c14.8-0.4 26.4-12.7 26-27.5 0-21 74.3-72.1 160.3-81.7 13.6-1.8 23.7-13.6 23.3-27.3v-57.2c0-9.2-4.5-17.9-12.1-23.1-67.3-45.3-74.6-145.9-74.6-187 0-94.9 60.8-114.9 111.8-114.9 14.8-0.4 26.4-12.6 26.1-27.4 0.4-14.8-11.2-27.1-26-27.5h-0.1c-101 0-163.8 65-163.8 169.8 0 47.9 8.7 162.1 86.7 224.6v19C102.4 559 2 611.7 2 675.8c-0.4 14.8 11.3 27.1 26.1 27.4z" fill="#1296db" p-id="2755"></path></svg>