<?xml version="1.0" standalone="no"?><!DOCTYPE svg PUBLIC "-//W3C//DTD SVG 1.1//EN" "http://www.w3.org/Graphics/SVG/1.1/DTD/svg11.dtd"><svg t="1622698130229" class="icon" viewBox="0 0 1090 1024" version="1.1" xmlns="http://www.w3.org/2000/svg" p-id="2153" xmlns:xlink="http://www.w3.org/1999/xlink" width="212.890625" height="200"><defs><style type="text/css"></style></defs><path d="M545.1264 955.40224a14.52032 14.52032 0 0 1-7.53152-2.11968 14.66368 14.66368 0 0 1-4.79744-4.79744l-0.15872-0.27136L102.18496 407.11168c-8.31488-12.84096-9.48224-29.29664-2.82112-43.61216l125.44-235.90912c8.11008-13.29152 22.50752-21.85216 38.35392-22.63552l575.744 0.00512c15.39072 0.85504 29.568 9.40544 37.65248 22.8608l125.4144 240.49664c6.02624 14.22336 4.28032 30.67904-4.83328 43.64288l-401.23904 492.45184v0.14848h-2.48832l-35.7376 43.6224-0.18432 0.3072a14.38208 14.38208 0 0 1-12.35968 6.912z m30.39232-118.4512l8.71424 5.13536 376.05888-459.37152h-204.3648l-180.40832 454.23616z m-69.50912 0.48128l8.76032-5.07904-177.53088-449.6384H142.82752l363.18208 454.71744z m39.7312-53.3248l159.5904-401.39264H384.94208l160.79872 401.39264zM773.68832 335.36h154.7776l-86.06208-168.9088-68.71552 168.9088z m-365.47584 0h278.4768l-139.23328-186.47552L408.21248 335.36z m-240.22528 0h150.24128L254.39232 172.86656 167.9872 335.36z m199.6544-2.26304L500.54656 152.32H292.6848l74.9568 180.77696z m357.3504-4.56192l72.00256-176.21504H595.5072l129.4848 176.21504z" p-id="2154" fill="#1296db"></path></svg>